<svg xmlns="http://www.w3.org/2000/svg" width="256" height="256" viewBox="0 0 256 256">
    <rect width="256" height="256" fill="#861a22" ry="25"/>
    <path fill="none" stroke="#fff" stroke-width="8" d="M201.48 188.808c.445 4.88 2.973 9.535 6.824 12.566 3.85 3.03 8.97 4.395 13.817 3.681 4.849-.713 9.358-3.493 12.172-7.505s3.895-9.198 2.916-14c-.98-4.809-3.902-9.053-7.484-12.409s-7.82-5.918-12.054-8.401c-12.525-7.346-25.352-14.25-37.13-22.743s-22.584-18.728-29.742-31.361c-7.158-12.634-10.398-27.89-6.786-41.953 1.805-7.032 5.305-13.66 10.312-18.918s11.532-9.109 18.623-10.667c9.663-2.123 20.052.124 28.44 5.37 8.389 5.245 14.822 13.327 18.847 22.364 3.196 7.176 4.936 14.926 8.044 22.141 1.553 3.608 3.46 7.09 5.96 10.119s5.62 5.597 9.232 7.141a20.7 20.7 0 0 0 10.896 1.462 20.7 20.7 0 0 0 10.091-4.362 20.7 20.7 0 0 0 6.4-8.938 20.7 20.7 0 0 0 .88-10.958"/>
    <g fill="#fff" stroke="#861a22" stroke-width="8" paint-order="stroke" transform="rotate(50 -85.764 182.144)">
        <rect width="275" height="20" x="-137.5" y="-10" ry="4"/>
        <rect width="198" height="43" x="-79" y="-21.5" ry=".5"/>
        <rect width="35" height="20" x="75" y="-37" ry=".5"/>
    </g>
</svg>
